<?xml version="1.0" encoding="UTF-8"?>
<svg id="Layer_1" data-name="Layer 1" xmlns="http://www.w3.org/2000/svg" viewBox="0 0 791.23 337.91">
  <defs>
    <style>
      .cls-1 {
        fill: #00aeef;
      }

      .cls-2 {
        fill: #27aae1;
      }

      .cls-3 {
        fill: #ed1e7a;
      }
    </style>
  </defs>
  <g>
    <g>
      <circle class="cls-1" cx="265.3" cy="145.29" r="20.2"/>
      <path class="cls-1" d="m201.44,125.09c11.16,0,20.2,9.04,20.2,20.2s-9.04,20.2-20.2,20.2-20.2-9.04-20.2-20.2,9.04-20.2,20.2-20.2Z"/>
      <circle class="cls-1" cx="137.58" cy="145.29" r="20.2"/>
    </g>
    <g>
      <path class="cls-3" d="m653.64,125.09c11.16,0,20.2,9.04,20.2,20.2s-9.04,20.2-20.2,20.2-20.2-9.04-20.2-20.2,9.04-20.2,20.2-20.2Z"/>
      <path class="cls-3" d="m589.79,125.09c11.16,0,20.2,9.04,20.2,20.2s-9.04,20.2-20.2,20.2-20.2-9.04-20.2-20.2,9.04-20.2,20.2-20.2Z"/>
      <path class="cls-3" d="m525.93,125.09c11.16,0,20.2,9.04,20.2,20.2s-9.04,20.2-20.2,20.2-20.2-9.04-20.2-20.2,9.04-20.2,20.2-20.2Z"/>
    </g>
  </g>
  <path class="cls-3" d="m395.61,83.78c-10.03,0-18.16,8.13-18.16,18.16v109.07c0,22.97-18.69,41.65-41.65,41.65h-153.59l-29.47,31.81-29.47-31.81h-45.3c-22.97,0-41.65-18.69-41.65-41.65V77.97c0-22.97,18.69-41.65,41.65-41.65h262.31c4.84-13.33,11.91-25.59,20.79-36.32H77.97C34.98,0,0,34.98,0,77.97v133.04c0,43,34.98,77.97,77.97,77.97h29.43l45.33,48.93,45.33-48.93h137.73c42.99,0,77.97-34.98,77.97-77.97v-109.07c0-10.03-8.13-18.16-18.16-18.16Z"/>
  <path class="cls-2" d="m713.26,0h-257.83c-43,0-77.97,34.98-77.97,77.97v62.23c0,10.03,8.13,18.16,18.16,18.16s18.16-8.13,18.16-18.16v-62.23c0-22.97,18.69-41.65,41.65-41.65h257.83c22.97,0,41.65,18.69,41.65,41.65v133.04c0,22.97-18.69,41.65-41.65,41.65h-45.3l-29.47,31.81-29.47-31.81h-158.1c-4.83,13.33-11.91,25.59-20.78,36.32h163.02l45.33,48.93,45.33-48.93h29.43c43,0,77.97-34.98,77.97-77.97V77.97c0-42.99-34.98-77.97-77.97-77.97Z"/>
</svg>